<svg xmlns="http://www.w3.org/2000/svg" viewBox="0 0 297 297" xml:space="preserve"><path d="M295.431 225.622a10 10 0 0 0-8.431-4.621H10a10 10 0 0 0-9.069 14.214l13 27.979c7.707 16.589 24.507 27.308 42.799 27.308h183.539c18.292 0 35.092-10.719 42.798-27.307l13.001-27.979a10 10 0 0 0-.637-9.594m-30.501 29.145c-4.44 9.558-14.12 15.733-24.66 15.733H56.73c-10.54 0-20.22-6.176-24.661-15.734L25.673 241h245.652zM16.5 208.001H165c5.522 0 10-4.478 10-10v-181.5a10 10 0 0 0-17.74-6.332l-148.5 181.5a10 10 0 0 0 7.74 16.332M155 44.514V188H37.602zm43 163.487h82.5a10 10 0 0 0 9.103-14.138l-82.5-181.5A10 10 0 0 0 188 16.501v181.5c0 5.522 4.477 10 10 10m10-145.334 56.97 125.334H208z"/></svg>